<svg xmlns="http://www.w3.org/2000/svg" xmlns:xlink="http://www.w3.org/1999/xlink" width="800" height="800" xml:space="preserve" fill="#fff"><defs><path id="a" d="M-74-64h938v938H-74z"/></defs><clipPath id="b"><use xlink:href="#a" overflow="visible"/></clipPath><path clip-path="url(#b)" d="M394.905 22.765c-88.377 0-171.465 34.416-233.956 96.907-62.492 62.492-96.907 145.579-96.907 233.956 0 88.378 34.415 171.462 96.907 233.957 62.491 62.492 145.579 96.908 233.956 96.908 88.375 0 171.462-34.416 233.954-96.908 62.491-62.494 96.908-145.578 96.908-233.957 0-88.376-34.417-171.463-96.908-233.956-62.492-62.492-145.58-96.907-233.954-96.907m0 648.823c-175.324 0-317.961-142.637-317.961-317.96 0-175.323 142.637-317.959 317.961-317.959 175.323 0 317.959 142.637 317.959 317.959 0 175.323-142.636 317.96-317.959 317.96"/><path clip-path="url(#b)" d="M608.951 428.067a302.92 302.92 0 0 1-16.234 7.22c-.583 1.866-1.568 3.562-2.382 5.331l1.456.649-1.457-.647-2.544 5.273c2.029 5.46 4.179 11.265 5.802 17.06a323.512 323.512 0 0 1 4.128 17.804c2.776-4.638 5.7-9.194 8.315-13.92a322.62 322.62 0 0 0-7.401-22.511l5.555-2.075 5.271-2.364a323.137 323.137 0 0 0 10.661-5.172c1.831-5.089 3.875-10.108 5.027-15.408-2.658 1.6-5.125 3.195-7.896 4.634a331.094 331.094 0 0 1-8.301 4.126"/><path clip-path="url(#b)" d="M613.664 451.016c1.199-2.417 2.345-4.857 3.194-7.426-3.2 1.619-6.661 3.028-10.142 4.338l6.948 3.088zM607.841 375.438l-1.102 7.228c4.581 5.891 9.387 12.235 13.605 18.873a311.7 311.7 0 0 1-20.009 11.775c-.972 4.748-3.053 9.152-4.595 13.722 5.313-2.366 11.043-4.858 16.242-7.771a323.75 323.75 0 0 0 15.63-9.491c1.108-4.273 2.283-8.533 2.792-12.924-7.146-10.522-13.721-20.005-22.202-28.718l-.361 7.306z"/><path clip-path="url(#b)" d="M602.437 405.14a308.903 308.903 0 0 0 9.25-5.429c-1.819-2.934-4.146-5.887-6.217-8.698-.426 2.371-.578 4.797-1.224 7.123l-1.809 7.004zM551.268 508.925c-2.953.005-6.038-.208-8.985-.364l-4.326 3.93 1.098 1.223-1.099-1.222-4.332 3.943c-.114 6.116-1.001 11.673-1.805 17.707-.868 5.952-1.906 12.088-3.196 18.279l13.01-9.674c.614-3.972 1.325-7.67 1.636-11.7.331-3.997.586-7.932.767-11.8 7.615.325 15.928.78 23.652.084l10.898-12c-6.304.63-12.46 1.068-18.451 1.331-2.998.133-5.954.219-8.867.263"/><path clip-path="url(#b)" d="m555.051 531.463 5.982-5.442a343.31 343.31 0 0 1-11.077-.199l5.095 5.641zM584.044 453.706c-2.161 4.367-4.969 8.382-7.413 12.596a310.42 310.42 0 0 1 2.763 11.299c.709 3.743 1.263 7.502 1.812 11.38-7.896 1.207-15.181 2.396-22.892 2.717l-9.748 10.725c5.779-.04 11.731-.251 17.839-.646 3.015-.229 6.232-.369 9.187-.803 2.976-.419 5.987-.886 9.032-1.4l7.913-10.603c-.885-6.106-2.351-12.316-3.706-18.155-1.493-5.924-2.76-11.448-4.787-17.11"/><path clip-path="url(#b)" d="M563.563 485.095a307.15 307.15 0 0 0 10.48-1.319 299.472 299.472 0 0 0-1.808-10.267l-8.672 11.586zM610.15 458.325l3.513-7.308-6.947-3.09c1.182 3.39 2.33 6.856 3.434 10.398M466.522 555.105l-5.484 2.013.572 1.772-.576-1.771c-1.808.745-3.688 1.263-5.591 1.707a305 305 0 0 1-8.872 15.462c-1.598 2.596-3.246 5.256-4.974 7.83a326.512 326.512 0 0 1-5.452 7.303c2.665-.452 5.36-.738 7.994-1.337l7.861-2.003a325.24 325.24 0 0 0 6.255-10.108c1.979-3.369 3.904-6.55 5.581-10.207a322.263 322.263 0 0 0 21.571 9.615c2.578-.84 4.981-2.089 7.422-3.249l7.312-3.515c-5.967-1.864-11.696-3.791-17.245-5.911a308.81 308.81 0 0 1-16.374-7.601"/><path clip-path="url(#b)" d="m468.926 581.409 7.604-2.77a325.652 325.652 0 0 1-9.959-4.457l2.355 7.227zM510.072 553.093c-7.453-1.636-15.01-4.294-22.102-6.955l-6.525 3.147-3.263 1.573-3.403 1.239c5.472 2.737 10.815 4.545 16.529 6.608a332.07 332.07 0 0 0 17.695 5.63l11.326-6.843c3.482-11.685 5.317-24.069 6.568-35.606l-11.712 8.764c-1.295 7.369-3.068 14.749-5.113 22.443"/><path clip-path="url(#b)" d="M505.636 545.435c.864-3.492 1.655-6.94 2.375-10.342-4.154 2.444-8.17 5.143-12.433 7.391 3.396 1.243 6.621 1.994 10.058 2.951M549.047 536.904l6.002-5.438-5.093-5.644c-.237 3.638-.54 7.334-.909 11.082M378.372 566.811c-1.945-.12-3.899-.141-5.835-.337l-.168 1.585.167-1.585-5.789-.893a312.241 312.241 0 0 1-14.404 10.717l-3.824 2.635-3.85 2.311a321.863 321.863 0 0 1-7.967 4.55c5.241 1.337 10.448 2.833 15.834 3.452a323.383 323.383 0 0 0 19.055-13.733c4.862 5.836 10.139 11.532 15.804 17.324 2.697.108 5.395.316 8.092.333l8.091-.389c-9.357-7.678-17.759-17.206-25.206-25.97"/><path clip-path="url(#b)" d="M369.898 591.876c2.681.248 5.379.318 8.067.48-2.514-2.691-4.953-5.282-7.29-8.043l-.777 7.563zM440.147 572.652l2.393-3.907c1.562-2.6 3.066-5.186 4.515-7.755-4.725 1.199-9.405 2.602-14.267 3.12a315.26 315.26 0 0 1-13.792 18.742c-6.178-5.059-11.976-10.346-17.366-15.537-2.412.097-4.826.301-7.236.32l-7.24-.374c7.791 9.307 16.541 16.886 26.244 25.027 2.199-.142 4.408-.176 6.597-.409l6.545-.983a324.237 324.237 0 0 0 11.069-14.607l2.538-3.637z"/><path clip-path="url(#b)" d="M410.065 566.892c2.585 2.387 5.266 4.865 8.01 7.157a311.376 311.376 0 0 0 6.366-8.665l-7.15 1.103c-2.399.218-4.816.262-7.226.405M461.158 583.715c2.615-.685 5.255-1.281 7.766-2.305l-2.354-7.228c-1.642 3.405-3.499 6.415-5.412 9.533M293 541.873l-4.997-3.029-.841 1.449.839-1.45-5.005-3.043a310.893 310.893 0 0 1-8.697 2.189l-4.461 1.013-4.368.72a328.356 328.356 0 0 1-18.201 2.336l12.991 9.7c7.988-1.353 15.801-3.159 23.185-5.051 1.804 7.771 4.401 14.926 7.275 22.411l7.312 3.513 3.661 1.746 3.804 1.405c-2.742-5.341-4.896-11.446-6.984-17.087A303.467 303.467 0 0 1 293 541.873"/><path clip-path="url(#b)" d="M275.215 560.949c2.338 1.338 4.542 2.922 6.997 4.049-1.262-3.362-2.2-7.143-3.197-10.632l-3.8 6.583zM350.896 569.632a301.177 301.177 0 0 0 7.283-5.35c-2.402-.402-4.837-.645-7.213-1.177l-7.078-1.828a305.752 305.752 0 0 1-9.84 5.969c-3.37 1.936-6.888 4.01-10.342 5.541a308.753 308.753 0 0 1-9.638-21.043c-2.311-.73-4.449-1.867-6.625-2.91l-6.525-3.146c1.783 5.568 3.757 11.3 6 17.027a318.482 318.482 0 0 0 7.82 16.468c4.175 1.418 8.217 3.266 12.547 4.19a325.59 325.59 0 0 0 16.089-9.042c2.566-1.558 5.06-3.053 7.522-4.699"/><path clip-path="url(#b)" d="M326.434 564.367c3.097-1.452 6.244-3.354 9.279-5.186-4.74-.98-9.169-2.953-13.72-4.538a304.541 304.541 0 0 0 4.441 9.724M361.883 590.672l8.012 1.204.781-7.563a324.623 324.623 0 0 1-8.793 6.359M220.53 480.318l1.407-1.024-3.513-4.686c-5.878-.876-11.429-2.263-17.36-3.684-5.791-1.507-12.04-3.038-17.784-5.122 2.431 4.826 5.487 9.313 8.219 13.974a324.04 324.04 0 0 0 11.4 2.896c3.904.77 7.85 1.391 11.685 1.969-1.084 7.515-2.307 15.668-2.574 23.548l10.901 11.996c.001-6.31.175-12.452.511-18.416.207-3.013.287-5.845.706-8.88.4-3.018.839-5.987 1.312-8.911l-3.5-4.681-1.41 1.021z"/><path clip-path="url(#b)" d="M206.134 500.801c.377-3.718.811-7.369 1.297-10.954l-6.143 4.479 4.846 6.475zM275.581 531.316l-11.732-8.735c-3.733.551-7.726 1.26-11.472 1.51-3.767.28-7.612.497-11.531.644-.404-7.949-.909-15.234-.288-23.079l-9.751-10.723a309.347 309.347 0 0 0-1.129 17.735 333.75 333.75 0 0 0-.198 9.264c.018 3.091.254 6.046.439 9.141l9.792 8.894c6.004-.049 12.443-1.002 18.389-1.737 6.023-.835 11.817-1.754 17.481-2.914"/><path clip-path="url(#b)" d="M246.768 518.152a308.86 308.86 0 0 0 10.442-.775l-10.708-9.737c.027 3.445.114 6.951.266 10.512M268.286 556.743l6.926 4.204 3.803-6.581a325.463 325.463 0 0 1-10.729 2.377M187.05 403.798l-1.46-5.658-1.793.377 1.792-.379c-.579-1.871-.661-3.844-1.018-5.762a305.225 305.225 0 0 1-14.508-10.438c-2.379-1.863-5-3.765-7.199-5.768-2.235-2-4.474-4.059-6.716-6.179l.429 8.09 1.202 8.02c6.375 5.034 12.439 9.721 18.917 13.913a321.273 321.273 0 0 0-11.735 20.414c1.134 5.304 3.395 10.259 5.137 15.375 2.515-5.748 4.797-11.168 7.747-16.541a307.656 307.656 0 0 1 9.205-15.464"/><path clip-path="url(#b)" d="m160.602 403.427 2.001 7.844a321.988 321.988 0 0 1 5.435-9.425l-7.436 1.581zM213.791 467.292c-2.49-4.188-5.151-8.285-7.515-12.541a310.338 310.338 0 0 1-21.831-7.417l1.962-5.414 2.372-5.421a307.279 307.279 0 0 1 4.944-10.434c-1.634-4.542-3.502-9.014-4.496-13.754-1.503 2.532-3.167 5.179-4.491 7.782a310.501 310.501 0 0 0-3.879 7.977 327.219 327.219 0 0 0-7.372 16.976c1.57 4.122 3.712 8.001 5.555 12.009 5.865 2.217 11.392 4.346 17.247 6.018a311.627 311.627 0 0 0 17.504 4.219"/><path clip-path="url(#b)" d="M196.615 433.993c-1.608 3.254-2.893 6.464-4.088 9.732a311.38 311.38 0 0 0 10.088 3.419l-3.143-6.515c-1.084-2.155-2.117-4.335-2.857-6.636M196.451 487.825l4.836 6.498 6.143-4.479a335.472 335.472 0 0 1-10.979-2.019M170.062 325.32a307.709 307.709 0 0 1 14.508-10.436c.355-1.913.44-3.882 1.014-5.749l-1.729-.37 1.73.367 1.464-5.671a307.93 307.93 0 0 1-9.207-15.463c-2.95-5.373-5.232-10.793-7.748-16.541-1.742 5.115-4.003 10.07-5.135 15.375a322.033 322.033 0 0 0 11.733 20.414c-6.476 4.192-12.539 8.877-18.915 13.911l-1.201 8.021-.429 8.089a331.983 331.983 0 0 1 6.714-6.177c2.2-2.002 4.821-3.906 7.201-5.77"/><path clip-path="url(#b)" d="M160.597 303.851c-.703 2.608-.912 5.312-1.387 7.965 2.971-2.216 5.662-4.4 8.826-6.4l-7.439-1.565zM182.146 376.583c-.343-2.413-.3-4.864-.471-7.295a318.011 318.011 0 0 1-17.26-15.658 317.027 317.027 0 0 1 17.26-15.667c.167-2.409.132-4.837.46-7.229l1.102-7.16c-10.031 6.786-18.56 14.697-27.593 23.514l-.311 6.603.316 6.601c9.021 8.82 17.58 16.732 27.606 23.52l-1.109-7.229z"/><path clip-path="url(#b)" d="M173.268 353.625a313.433 313.433 0 0 0 7.978 7.23l-.374-7.228.374-7.23a314.85 314.85 0 0 0-7.978 7.228M159.211 395.446c.475 2.658.684 5.368 1.39 7.979l7.436-1.579c-3.165-2.001-5.855-4.184-8.826-6.4M218.422 232.653l3.504-4.677-1.428-1.042 1.43 1.04 3.507-4.691a303.281 303.281 0 0 1-1.311-8.911c-.42-3.035-.5-5.866-.707-8.88a329.476 329.476 0 0 1-.509-18.418l-10.902 11.998c.269 7.88 1.491 16.032 2.575 23.549-3.835.579-7.78 1.199-11.685 1.969a321.85 321.85 0 0 0-11.4 2.896c-2.73 4.661-5.786 9.146-8.217 13.971 5.742-2.083 11.993-3.614 17.784-5.12 5.931-1.423 11.48-2.811 17.359-3.684"/><path clip-path="url(#b)" d="m201.275 212.948-4.828 6.488a338.844 338.844 0 0 1 10.981-2.021l-6.153-4.467zM184.692 287.283c1.349 2.612 2.994 5.252 4.503 7.788 1.005-4.785 2.874-9.301 4.529-13.884a306.193 306.193 0 0 1-4.946-10.431l-2.373-5.42-1.963-5.411a310.016 310.016 0 0 1 21.833-7.424c2.343-4.219 4.979-8.277 7.446-12.426a312.65 312.65 0 0 0-17.501 4.22c-5.834 1.681-11.374 3.799-17.236 6.02-1.836 4.008-3.994 7.88-5.543 12.011a327.863 327.863 0 0 0 7.372 16.98 307.23 307.23 0 0 0 3.879 7.977"/><path clip-path="url(#b)" d="M192.531 263.524c1.196 3.268 2.478 6.479 4.086 9.734.74-2.301 1.773-4.48 2.857-6.636l3.143-6.515a305.623 305.623 0 0 0-10.086 3.417M162.601 295.992l-2.003 7.855 7.438 1.567a323.724 323.724 0 0 1-5.435-9.422M269.834 168.255l4.459 1.016c2.951.698 5.85 1.427 8.698 2.188l4.994-3.034-.838-1.453.84 1.452 5.006-3.038a306.641 306.641 0 0 1 5.514-16.824c2.088-5.64 4.242-11.745 6.984-17.086l-3.804 1.406-3.659 1.746-7.313 3.512c-2.876 7.488-5.472 14.642-7.278 22.414-7.383-1.893-15.195-3.701-23.183-5.051l-12.992 9.699a328.087 328.087 0 0 1 18.2 2.335l4.372.718z"/><path clip-path="url(#b)" d="m275.196 146.318-6.916 4.199c3.647.745 7.225 1.539 10.73 2.378l-3.814-6.577zM230.721 216.42l9.841-10.823c-.624-7.844-.12-15.127.283-23.071 3.92.144 7.764.357 11.535.637 3.746.25 7.739.956 11.475 1.508l11.616-8.663c-5.65-1.139-11.452-2.075-17.472-2.902-5.953-.746-12.375-1.681-18.379-1.732l-9.792 8.895c-.181 3.096-.428 6.041-.431 9.148.023 3.131.088 6.219.196 9.264.213 6.091.595 12.009 1.128 17.739"/><path clip-path="url(#b)" d="M246.774 189.097c-.152 3.563-.241 7.07-.268 10.517l10.708-9.737a303.684 303.684 0 0 0-10.44-.78M206.13 206.459l-4.853 6.487 6.15 4.469a335.582 335.582 0 0 1-1.297-10.956M348.516 128.325l3.823 2.634a309.868 309.868 0 0 1 14.403 10.717l5.775-.889-.178-1.742.18 1.742c1.941-.201 3.9-.221 5.849-.341 7.448-8.764 15.849-18.292 25.208-25.969l-8.091-.391c-2.698.019-5.395.226-8.092.334-5.667 5.792-10.944 11.486-15.806 17.323a322.236 322.236 0 0 0-19.052-13.731c-5.386.617-10.593 2.114-15.835 3.45a323.252 323.252 0 0 1 7.967 4.552l3.849 2.311z"/><path clip-path="url(#b)" d="m369.876 115.384-8 1.202a319.398 319.398 0 0 1 8.793 6.36l-.793-7.562zM307.386 158.449c2.198-1.05 4.356-2.201 6.686-2.938a309.285 309.285 0 0 1 9.632-21.041c3.456 1.531 6.975 3.604 10.345 5.54a305.271 305.271 0 0 1 9.844 5.968l7.013-1.813c2.351-.54 4.766-.771 7.145-1.174a313.632 313.632 0 0 0-7.283-5.347c-2.457-1.623-4.952-3.135-7.518-4.688a326.365 326.365 0 0 0-16.088-9.042c-4.329.923-8.363 2.793-12.542 4.202a322.356 322.356 0 0 0-7.824 16.47 297.167 297.167 0 0 0-5.996 17.039l6.586-3.176z"/><path clip-path="url(#b)" d="M326.442 142.888a309.193 309.193 0 0 0-4.445 9.723c4.551-1.586 8.981-3.559 13.721-4.54-3.035-1.83-6.18-3.732-9.276-5.183M282.207 142.261c-2.458 1.129-4.665 2.715-7.009 4.056l3.812 6.578c.999-3.491 1.936-7.27 3.197-10.634M446.568 132.966a307.794 307.794 0 0 1 8.87 15.462c1.899.444 3.773.96 5.581 1.702l.535-1.641-.534 1.643 5.499 2.016a309.721 309.721 0 0 1 16.374-7.6c5.548-2.121 11.279-4.047 17.245-5.91l-7.311-3.515c-2.441-1.161-4.847-2.41-7.422-3.251a322.402 322.402 0 0 0-21.572 9.615c-1.678-3.656-3.606-6.835-5.58-10.205a331.829 331.829 0 0 0-6.255-10.108l-7.86-2.003c-2.635-.599-5.333-.884-7.995-1.336a328.013 328.013 0 0 1 5.451 7.303c1.728 2.574 3.377 5.234 4.974 7.828"/><path clip-path="url(#b)" d="M468.906 125.839c-2.507-1.021-5.144-1.615-7.752-2.299 1.911 3.12 3.77 6.127 5.411 9.533l2.341-7.234zM387.024 140.002l7.306-.378c2.437.007 4.871.221 7.306.319 5.39-5.194 11.184-10.479 17.359-15.541a315.998 315.998 0 0 1 13.797 18.745c4.818.518 9.459 1.894 14.137 3.086a307.498 307.498 0 0 0-4.513-7.754l-2.392-3.908-2.541-3.624a326.614 326.614 0 0 0-11.066-14.608l-6.545-.983c-2.19-.21-4.397-.261-6.597-.397-9.707 8.132-18.458 15.738-26.251 25.043"/><path clip-path="url(#b)" d="M418.084 133.209c-2.747 2.291-5.428 4.77-8.014 7.156 2.409.143 4.825.187 7.226.407l7.151 1.1a314.15 314.15 0 0 0-6.363-8.663M377.959 114.9c-2.694.165-5.396.232-8.08.483l.791 7.561c2.338-2.762 4.775-5.352 7.289-8.044M533.619 190.819l4.323 3.934 1.165-1.29-1.164 1.291 4.337 3.94c2.944-.158 6.029-.373 8.985-.367a306.8 306.8 0 0 1 8.865.264c5.993.262 12.15.703 18.453 1.333l-10.898-12.002c-7.727-.696-16.041-.241-23.653.083a332.016 332.016 0 0 0-.767-11.8c-.311-4.028-1.022-7.728-1.637-11.698l-13.01-9.673c1.291 6.189 2.329 12.327 3.196 18.278.804 6.037 1.691 11.592 1.805 17.707"/><path clip-path="url(#b)" d="m555.035 175.778-5.992-5.429c.369 3.748.673 7.443.908 11.083l5.084-5.654zM474.657 155.114l3.438 1.251 3.295 1.579 6.585 3.176c7.091-2.66 14.645-5.321 22.097-6.958 2.046 7.696 3.822 15.076 5.121 22.446l11.602 8.682a310.217 310.217 0 0 0-2.433-17.761l-.794-4.572-1.035-4.375a319.179 319.179 0 0 0-2.308-8.883l-11.331-6.833a330.745 330.745 0 0 0-17.698 5.629c-5.713 2.053-11.067 3.884-16.539 6.619"/><path clip-path="url(#b)" d="M505.642 161.828c-3.434.954-6.662 1.705-10.059 2.948 4.261 2.25 8.278 4.946 12.433 7.39-.718-3.4-1.508-6.848-2.374-10.338M476.525 128.616l-7.617-2.776-2.343 7.233c3.24-1.515 6.56-3.003 9.96-4.457M590.327 266.621l1.576-.7-1.575.702c.813 1.774 1.804 3.472 2.388 5.343a305.234 305.234 0 0 1 16.235 7.219 336.32 336.32 0 0 1 8.3 4.127c2.771 1.438 5.24 3.034 7.896 4.634-1.15-5.298-3.196-10.318-5.026-15.408a324.188 324.188 0 0 0-10.663-5.172l-5.271-2.365-5.555-2.074a322.472 322.472 0 0 0 7.402-22.512c-2.615-4.725-5.54-9.282-8.314-13.919a325.12 325.12 0 0 1-4.13 17.804c-1.623 5.793-3.773 11.597-5.8 17.059l2.537 5.262z"/><path clip-path="url(#b)" d="M610.147 248.926a319.224 319.224 0 0 1-3.435 10.398l6.941-3.103-3.506-7.295zM566.318 205.386a309.682 309.682 0 0 0-17.839-.647l9.84 10.824c7.705.321 14.99 1.508 22.883 2.713-.546 3.877-1.101 7.639-1.807 11.381a313.27 313.27 0 0 1-2.762 11.303c2.425 4.17 5.195 8.157 7.354 12.475 2.005-5.651 3.287-11.183 4.779-17.103 1.348-5.836 2.829-12.053 3.695-18.145l-7.914-10.603a329.437 329.437 0 0 0-9.031-1.401c-2.973-.422-6.178-.572-9.198-.797"/><path clip-path="url(#b)" d="m563.565 222.165 8.673 11.586a297.215 297.215 0 0 0 1.809-10.263 306.451 306.451 0 0 0-10.482-1.323M561.025 181.233l-5.985-5.453-5.086 5.652c3.629-.126 7.322-.193 11.071-.199M633.61 336.114c-.186-2.693-.177-5.403-.536-8.081l-1.206-8.019c-6.698 10.122-15.222 19.444-23.238 27.764l.304 5.84 1.603.002h-1.603l-.304 5.852c8.017 8.322 16.541 17.644 23.238 27.766l1.207-8.019c.358-2.678.35-5.387.536-8.08a325.467 325.467 0 0 0-15.588-17.512 326.646 326.646 0 0 0 15.587-17.513M595.695 280.099c1.555 4.615 3.661 9.056 4.641 13.85a308.653 308.653 0 0 1 20.009 11.767c-4.218 6.641-9.024 12.988-13.605 18.879l1.1 7.162.354 7.239a313.327 313.327 0 0 0 6.06-6.684c2.05-2.291 3.67-4.6 5.513-6.993a325.072 325.072 0 0 0 10.621-15.034c-.508-4.392-1.707-8.648-2.804-12.922a321.971 321.971 0 0 0-15.63-9.495c-5.227-2.905-10.939-5.403-16.259-7.769"/><path clip-path="url(#b)" d="m602.438 302.121 1.81 7.004c.645 2.326.798 4.753 1.224 7.124 2.07-2.812 4.397-5.762 6.217-8.697a317.336 317.336 0 0 0-9.251-5.431M613.655 256.223l-6.942 3.102c3.481 1.31 6.943 2.72 10.144 4.337-.852-2.574-2-5.018-3.202-7.439M634.473 353.617l-.389-8.072a334.003 334.003 0 0 1-7.213 8.081v.001a324.273 324.273 0 0 1 7.213 8.08l.389-8.086v-.004zM318.508 219.229c.262.031.319-.005-.004-.171 0 .055.004.113.004.171M470.983 219.229c0-.057.004-.115.004-.171-.322.166-.266.202-.004.171M400.597 430.954a47.524 47.524 0 0 0-4.59 2.94c1.944 1.203 3.325 2.97 4.964 4.479a42.479 42.479 0 0 1 2.824-1.737c14.952-8.422 26.608-3.634 26.608-3.634s-.533 3.398-3.173 7.846c1.098 2.543 1.879 6.167 1.651 8.772 8.724-10.253 9.394-21.052 9.394-21.052s-17.318-9.083-37.678 2.386"/><path clip-path="url(#b)" d="M364.825 441.383c1.473 2.11 2.99 3.913 4.874 5.633 2.14-12.554 13.069-22.11 26.232-22.11 4.042 0 7.868.902 11.3 2.513 2.92-1.283 5.278-1.841 8.1-2.235a32.562 32.562 0 0 0-19.399-6.375c-14.529-.001-26.841 9.47-31.107 22.574M411.285 462.644c-1.983 1.019-4.227 1.607-6.348 2.017.093 1.123.143 2.291.143 3.507 0 17.163-9.892 24.968-9.892 24.968s-3.755-2.966-6.638-9.255c-2.677-.388-5.384-1.187-7.832-2.41 4.345 14.14 14.47 20.697 14.47 20.697s16.415-10.629 16.415-34a47.352 47.352 0 0 0-.318-5.524"/><path clip-path="url(#b)" d="M414.957 432.912a26.519 26.519 0 0 1 7.589 18.606c0 8.745-4.222 16.5-10.732 21.352-.136 2.768-.609 5.779-1.499 8.031 10.854-5.322 18.327-16.479 18.327-29.383a32.56 32.56 0 0 0-6.376-19.403c-2.438-.017-4.873.313-7.309.797M401.145 483.814c1.155-2.08 1.901-4.412 2.349-6.773a26.623 26.623 0 0 1-7.562 1.092c-12.586 0-23.132-8.739-25.903-20.479-2.371-1.82-4.618-3.713-6.804-6.294 0 .052-.003.104-.003.158 0 18.064 14.644 32.712 32.71 32.712 1.774 0 3.515-.144 5.213-.416"/><path clip-path="url(#b)" d="M421.499 456.468c.606-2.841.63-5.799.188-8.64-4.827 5.567-18.428 14.3-34.439 9.809-.012.059-1.222 5.315-1.456 6.626 20.867 3.905 34.241-6.719 35.707-7.795"/><path clip-path="url(#b)" d="M390.525 430.903a47.07 47.07 0 0 0-5.911-2.974c-2.379 1.304-4.539 2.765-6.422 4.606 14.729 3.586 24.188 16.403 25.392 24.936 2.107-.403 5.938-1.976 6.367-2.396-2.046-6.773-7.026-16.819-19.426-24.172"/><path clip-path="url(#b)" d="M386.898 457.51s1.063-6.781 7.63-13.72a16.1 16.1 0 0 1 .489-.448c-1.498-1.68-3.495-3.141-5.096-4.498a41.578 41.578 0 0 0-6.979 10.306c-3.559 7.07-3.915 12.793-3.915 12.793s-.253 4.065-.253 6.225c0 .792.021 1.565.059 2.329 1.446 1.951 4.441 3.485 7.043 4.632a40.885 40.885 0 0 1-.579-6.961c0-1.402.068-2.738.189-4.017.392-2.175.846-4.495 1.412-6.641M373.783 459.14a48.062 48.062 0 0 0 4.58 2.395c.341-2.136.888-4.367 1.538-6.484-.961-.473-1.8-.931-2.793-1.518-14.761-8.753-16.43-21.243-16.43-21.243s3.368-1.295 8.758-1.16c1.791-2.204 3.605-4.063 5.701-5.939-12.877-2.147-22.229 2.492-22.229 2.492s.772 19.539 20.875 31.457M401.025 278.116a4.873 4.873 0 0 0-4.825-5.551h-2.527a4.874 4.874 0 0 0-4.828 5.551s.4 32.673 6.091 43.43c5.412-10.756 6.089-43.43 6.089-43.43M382.931 254.03c-3.539-16.654-40.176-9.577-48.504-24.355-5.642 27.604 49.356 32.434 50.03 33.236l-1.526-8.881zM329.431 444.297c0-8.048-6.523-14.571-14.572-14.571-8.047 0-14.571 6.523-14.571 14.571s6.524 14.569 14.571 14.569c8.049 0 14.572-6.521 14.572-14.569m-14.363 8.95a8.534 8.534 0 1 1 0-17.069 8.535 8.535 0 1 1 0 17.069M375.021 273.597c-.209 30.809-20.61 30.394-21.442 61.411 0 0 38.718-40.801 21.442-61.411M346.361 366.787c-1.941 13.879-4.301 27.756-4.301 27.756l15.96-.138c-7.356-9.784-11.935-22.9-11.659-27.618M333.387 448.563c-.625 7.493-5.726 11.657-10.929 13.321 15.612 6.662 19.775 8.121 38.511 19.36 0 .001-18.215-16.651-27.582-32.681M455.547 229.675c-8.326 14.778-44.964 7.701-48.501 24.355l-1.528 8.882c.674-.804 55.673-5.632 50.029-33.237M378.943 379.327s-2.586-7.269 0-16.88c2.424-9.017 14.335-15.41 15.802-16.167 1.465.757 13.376 7.15 15.803 16.167 2.586 9.611 0 16.88 0 16.88s6.293-10.016 6.174-17.488c-.286-18.227-15.816-31.634-17.277-31.634-1.404 0-4.46 1.112-4.699 1.2-.239-.087-3.296-1.2-4.7-1.2-1.462 0-16.99 13.407-17.277 31.634-.119 7.472 6.174 17.488 6.174 17.488M475.117 429.726c-8.05 0-14.573 6.523-14.573 14.571s6.523 14.569 14.573 14.569c8.045 0 14.569-6.521 14.569-14.569s-6.524-14.571-14.569-14.571m-.21 23.521a8.532 8.532 0 0 1-8.533-8.534c0-4.715 3.818-8.535 8.533-8.535a8.534 8.534 0 1 1 0 17.069M436.397 335.008c-.834-31.017-21.233-30.602-21.443-61.411-17.276 20.61 21.443 61.411 21.443 61.411M447.915 394.543s-2.359-13.877-4.302-27.756c.276 4.719-4.304 17.833-11.657 27.618l15.959.138z"/><path clip-path="url(#b)" d="M536.894 385.886h-76.931l-13.019-83.052a25.053 25.053 0 0 1 9.813-23.986l34.793-25.834c3.691 2.62 8.505 3.462 11.361 3.462 3.534 0 17.429-2.062 16.355-31.122-1.071-29.055-10.002-34.255-13.973-34.255-3.492 0-22.586 5.08-22.586 5.08s-9.408-3.572-17.388-7.741c-7.977-4.168-25.272-14.607-27.746-15.48-4.05-1.43-12.982-2.264-18.223 3.571-1.77-2.241-12.952-3.371-24.219-3.391v-.002l-.146.002-.146-.002v.002c-11.269.02-22.451 1.15-24.222 3.391-5.239-5.835-14.17-5.001-18.219-3.571-2.474.873-19.769 11.313-27.749 15.48-7.979 4.169-17.386 7.741-17.386 7.741s-19.094-5.08-22.588-5.08c-3.969 0-12.9 5.2-13.973 34.255-1.072 29.06 12.823 31.122 16.355 31.122 2.858 0 7.671-.842 11.363-3.462l34.793 25.834a25.047 25.047 0 0 1 9.813 23.986l-13.019 83.052h-76.931l-10.241 96.579c75.78 2.96 134.708 35.118 152.001 66.095l.146.253.146-.253c17.291-30.977 76.22-63.135 152.001-66.095l-10.235-96.579zm-202.436 8.733 14.942-93.761a25.042 25.042 0 0 0-9.626-23.917l-40.763-30.827c-3.812 3.176-7.423 4.328-11.393 4.328-3.969 0-7.484-2.688-9.257-9.46-1.773-6.77-2.846-41.702 7.193-44.685 1.369-.408 21.594 5.08 21.594 5.08s43.664-20.483 45.094-21.276c.985-.548 1.659-.708 2.249-.761.938-.32 1.928-.53 2.975-.53a9.297 9.297 0 0 1 9.297 9.297 9.297 9.297 0 0 1-9.297 9.298c-4.568 0-8.347-3.297-9.131-7.638-15.609 4.818-31.845 11.829-39.583 16.522-10.162 1.905-20.838-5.205-21.649-.973-7.493 39.135 2.638 40.801 2.638 40.801 1.269-3.652 12.384-11.448 17.625-11.448 18.942 34.139 67.655 31.849 53.083 69.11 31.851-50.376-35.388-25.813-37.887-78.895-2.179-.273-26.021-12.282-26.021-12.282l52.875 9.368c-6.669-7.78-9.399-21.545-7.971-23.61 6.829 11.113 13.973 12.227 18.737 12.227 4.764 0 14.132-1.589 19.847-19.055l14.306 27.504c-3.968-3.175-33.975-2.112-34.927-2.271 26.022 7.91 36.713 14.462 35.285 25.259-6.904-8.495-25.642-14.425-37.991-17.349 36.014 16.238 32.264 39.307 32.682 39.345h11.206c.422-.038-3.33-23.107 32.684-39.345-12.35 2.924-31.086 8.854-37.992 17.349-1.429-10.797 9.264-17.349 35.289-25.259-.956.159-30.961-.904-34.93 2.271l14.306-27.504c5.717 17.466 15.084 19.055 19.849 19.055 4.763 0 11.908-1.114 18.735-12.227 1.43 2.065-1.301 15.83-7.972 23.61l52.875-9.368s-23.841 12.008-26.019 12.282c-2.498 53.083-69.738 28.519-37.887 78.895-14.573-37.261 34.138-34.971 53.08-69.11 5.241 0 16.357 7.796 17.627 11.448 0 0 10.129-1.666 2.638-40.801-.813-4.232-11.488 2.877-21.65.973-7.736-4.693-23.974-11.704-39.581-16.522-.785 4.341-4.564 7.638-9.133 7.638a9.298 9.298 0 0 1 0-18.595c1.049 0 2.036.21 2.977.53.588.053 1.264.213 2.248.761 1.431.793 45.094 21.276 45.094 21.276s20.225-5.488 21.594-5.08c10.041 2.982 8.965 37.915 7.193 44.685-1.774 6.772-5.288 9.46-9.257 9.46-3.97 0-7.582-1.152-11.392-4.328l-40.764 30.827a25.039 25.039 0 0 0-9.626 23.917l14.94 93.761h73.938l-14.711 14.447s-85.614-3.383-100.983-3.851c53.896-64.141 1.458-64.874-7.341-109.414-18.022 37.433 54.073 51.776-11.431 111.383-65.505-59.607 6.591-73.951-11.432-111.383-8.799 44.54-61.237 45.273-7.339 109.414-15.373.468-100.985 3.851-100.985 3.851l-14.71-14.447h73.936zm180.627 67.579c-63.194 14.967-81.652 23.599-120.097 49.829-38.446-26.23-56.904-34.862-120.097-49.829 0-51.208 43.577-48.85 43.577-48.85l76.374.036h.292l76.373-.036c0 .001 43.578-2.358 43.578 48.85m-120.097 74.865c-9.776-10.743-43.905-47.411-141.826-61.941.696-18.518 4.2-66.457 5.052-77.983l12.096 15.739-6.353 58.116c31.132 2.755 96.713 16.244 130.754 54.272l.13.146.146.164.146-.164.128-.146c34.042-38.028 99.624-51.518 130.754-54.272l-6.351-58.116 12.096-15.739c.854 11.526 4.356 59.466 5.052 77.983-97.919 14.53-132.05 51.198-141.824 61.941"/><path clip-path="url(#b)" d="M456.588 448.563c-9.366 16.029-27.58 32.682-27.58 32.682 18.733-11.239 22.896-12.698 38.509-19.36-5.204-1.664-10.304-5.828-10.929-13.322M273.415 571.349l-11.923 59.891-11.101-6.598 3.977-16.522-15.493-9.21-12.534 11.43-11.101-6.598 46.919-39.085 11.256 6.692zm-28.043 21.722 11.102 6.598 3.72-15.21 3.24-8.609-.461-.276-6.016 6.962-11.585 10.535zM319.796 625.633l-12.337-4.104 3.881-8.816 22.377 7.438-9.651 29.015c-5.387 1.14-15.427.064-23.593-2.652-17.187-5.711-25.245-13.023-17.153-37.354 8.011-24.081 20.146-24.485 36.822-18.938 7.914 2.628 14.437 6.312 18.38 10.077l-5.722 7.831c-2.836-2.263-8.624-6.46-15.516-8.748-9.275-3.088-16.619-4.302-22.533 13.48-5.519 16.593-2.397 20.842 10.026 24.974 3.487 1.163 7.912 1.78 10.377 1.751l4.642-13.954zM341.369 656.306l6.587-57.18 42.749 4.926-1.988 9.428-30.103-3.472-1.528 13.273 23.424 2.7-1.099 9.529-23.425-2.699-1.752 15.225 30.993 3.576-2 9.515zM434.426 658.075l-26.601-35.733 3.476 37.855-11.429 1.048-5.264-57.32 12.499-1.149 26.584 35.553-3.456-37.677 11.338-1.042 5.264 57.323zM513.869 634.66c-3.965 3.744-10.876 7.695-18.806 10.275-16.7 5.446-28.94 4.629-36.8-19.492-7.859-24.113 1.55-31.987 18.251-37.428 7.923-2.588 14.873-3.529 20.282-2.841l.051 9.694c-3.573.026-10.29-.046-17.191 2.209-9.288 3.022-15.776 6.838-9.975 24.647 5.862 17.981 13.294 17.066 22.584 14.038 6.9-2.248 13.053-6.796 15.932-8.965l5.672 7.863zM543.746 621.995l-12.373-21.224c-11.227-5.908-22.772-12.361-34.122-18.301l11.308-6.59c5.865 3.113 11.956 6.621 17.871 9.817 2.49 2.493 5.767 5.975 8.059 8.479-.839-3.037-2.09-7.495-3.18-11.323.286-6.811.234-13.84 1.107-20.884l10.77-6.282-1.587 39.123 12.375 21.223-10.228 5.962zM182.003 222.97l-40.66-25.477-9.379 14.975-7.658-5.857 25.19-40.204 7.655 5.855-9.523 15.199 40.66 25.476zM176.323 134.812c11.164-11.399 23.076-17.799 41.521.262 18.446 18.061 12.298 30.104 1.135 41.507-11.162 11.398-23.076 17.8-41.522-.262-18.445-18.061-12.297-30.107-1.134-41.507m9.538 32.924c14.475 14.174 19.996 8.666 26.33 2.195 6.208-6.34 11.725-12.103-2.75-26.278-14.474-14.173-20.246-8.406-26.33-2.194-6.333 6.47-11.725 12.104 2.75 26.277M275.436 131.894l-23.863-9.573-6.555 4.061 10.912 17.603-10.058 6.234-30.322-48.921 19.81-12.278c14.478-8.974 20.47-9.521 28.781 3.888 6.611 10.669 5.937 16.046-1.862 22.355l24.663 9.5-11.506 7.131zm-25.565-19.804c6.324-3.921 8.375-5.718 3.982-12.806-4.536-7.316-6.961-6.126-13.286-2.207l-9.906 6.142 9.305 15.009 9.905-6.138z"/><path transform="rotate(67.67 305.5 89.497)" clip-path="url(#b)" d="M300.88 78.55h9.236v21.878h-9.236z"/><path clip-path="url(#b)" d="M385.041 56.869c-3.524-.868-11.661-1.849-18.876-1.035-7.034.788-10.602 2.722-10.083 7.354.599 5.341.957 5.303 6.668 6.375 13.648 1.892 28.74.56 30.806 16.562 1.552 13.804-7.469 17.792-21.096 19.323-8.194.921-19.536.299-25.07-1.604.58-3.673.983-6.515 1.71-9.661 3.643 1.124 12.572 2.736 23.081 1.555 6.771-.759 10.768-1.299 10.016-7.978-.568-5.075-2.4-5.319-7.884-5.967-20.518-2.024-28.05-2.442-29.731-17.404-1.169-10.417 7.779-16.654 19.179-17.934 8.283-.93 18.031-.853 23.188.913l-1.908 9.501zM515.987 133.318l31.123-48.441 36.219 23.268-5.942 7.589-25.504-16.386-7.225 11.243 19.847 12.751-5.189 8.072-19.844-12.749-8.291 12.903 26.26 16.87-5.99 7.665zM565.514 168.542l34.392-33.414-12.304-12.661 7.5-6.042 33.04 34.007-7.499 6.04-12.493-12.858-34.391 33.416zM596.277 206.276l20.644-13.309c5.399-11.48 11.327-23.299 16.752-34.901l7.09 10.999c-2.853 5.998-6.081 12.24-9.01 18.287-2.377 2.601-5.713 6.03-8.113 8.428 3.001-.972 7.4-2.421 11.173-3.681 6.813-.019 13.834-.385 20.912.173l6.75 10.472-39.143.17-20.645 13.308-6.41-9.946zM774.399 130.096h-119.89c25.854 30.001 46.581 64.54 60.855 102.25l59.035-102.25zM394.949 696.093a345.098 345.098 0 0 1-55.132-4.438L395 787.235l55.194-95.6a344.851 344.851 0 0 1-55.245 4.458M135.388 130.096H15.602l58.972 102.143c14.273-37.67 34.985-72.171 60.814-102.143M686.387 353.595c0 7.123-5.773 12.897-12.897 12.897-7.122 0-12.896-5.774-12.896-12.897 0-7.124 5.774-12.898 12.896-12.898 7.123-.001 12.897 5.774 12.897 12.898M129.45 353.595c0 7.123-5.774 12.897-12.897 12.897s-12.898-5.774-12.898-12.897c0-7.124 5.776-12.898 12.898-12.898s12.897 5.774 12.897 12.898M443.989 50.258l12.755 59.718-12.807-1.667-2.887-16.746-17.872-2.326-6.987 15.457-12.807-1.666 27.618-54.464 12.987 1.694zm-17.154 31.047 12.805 1.665-2.605-15.442-.43-9.186-.533-.073-2.769 8.774-6.468 14.262zM491.68 60.571l40.399 15.038-5.442 11.124c-9.158-3.194-18.313-6.39-27.471-9.583a6381.987 6381.987 0 0 0-3.271 8.218c8.728 3.314 17.458 6.628 26.188 9.945l-4.7 11.171c-8.725-3.385-17.45-6.771-26.177-10.155-2.814 7.555-5.629 15.11-8.442 22.668l-11.241-4.272 20.157-54.154z"/></svg>